#Comment line ignore any data following # character 
#Hierarchical Translation and Rotation (.htr) file 
[Header]	
#Header keywords are followed by a single value 
FileType HTR		#Single word string
DataType HTRS		#Translation followed by rotation and scale data
FileVersion 1		#integer
NumSegments 84		#integer
NumFrames 2		#integer
DataFrameRate 30		#integer, data frame rate in this file
EulerRotationOrder ZYX
CalibrationUnits mm
RotationUnits Degrees
GlobalAxisofGravity Y
BoneLengthAxis Y
ScaleFactor 1.00
[SegmentNames&Hierarchy]
#CHILD	PARENT
MASTER GLOBAL
root MASTER
chest root
L_mid_tent01 root
R_mid_tent01 root
spine01 root
Bip01_Neck chest
L_humerus chest
R_humerus chest
weapon_bone chest
Bip01_Head Bip01_Neck
eye_left_bone Bip01_Head
eye_right_bone Bip01_Head
L_forearm L_humerus
L_front_hand L_forearm
L_weapon_bone L_forearm
L_front_hand01_01 L_front_hand
L_front_hand02_01 L_front_hand
L_front_hand03_01 L_front_hand
L_front_hand01_02 L_front_hand01_01
L_front_hand02_02 L_front_hand02_01
L_front_hand03_02 L_front_hand03_01
R_forearm R_humerus
R_front_hand R_forearm
R_weapon_bone R_forearm
R_front_hand01_01 R_front_hand
R_front_hand02_01 R_front_hand
R_front_hand03_01 R_front_hand
R_front_hand01_02 R_front_hand01_01
R_front_hand02_02 R_front_hand02_01
R_front_hand03_02 R_front_hand03_01
null_rope01_connect L_mid_tent01
Rope1_Seg01 null_rope01_connect
Rope1_Seg02 Rope1_Seg01
Rope1_Seg03 Rope1_Seg02
Rope1_Seg04 Rope1_Seg03
Rope1_Seg05 Rope1_Seg04
Rope1_Seg06 Rope1_Seg05
Rope1_Seg07 Rope1_Seg06
Rope1_Seg09 Rope1_Seg07
L_mid_hand01 Rope1_Seg09
L_mid_hand02 Rope1_Seg09
L_mid_hand03 Rope1_Seg09
null_rope02_connect R_mid_tent01
Rope2_Seg01 null_rope02_connect
Rope2_Seg02 Rope2_Seg01
Rope2_Seg03 Rope2_Seg02
Rope2_Seg04 Rope2_Seg03
Rope2_Seg05 Rope2_Seg04
Rope2_Seg06 Rope2_Seg05
Rope2_Seg07 Rope2_Seg06
Rope2_Seg09 Rope2_Seg07
R_mid_hand01 Rope2_Seg09
R_mid_hand02 Rope2_Seg09
R_mid_hand03 Rope2_Seg09
spine02 spine01
spine03 spine02
pelvis spine03
null_rope03_connect pelvis
null_rope04_connect pelvis
Rope3_Seg01 null_rope03_connect
Rope3_Seg02 Rope3_Seg01
Rope3_Seg03 Rope3_Seg02
Rope3_Seg04 Rope3_Seg03
Rope3_Seg05 Rope3_Seg04
Rope3_Seg06 Rope3_Seg05
Rope3_Seg07 Rope3_Seg06
Rope3_Seg08 Rope3_Seg07
Rope3_Seg09 Rope3_Seg08
R_rear_hand01 Rope3_Seg09
R_rear_hand02 Rope3_Seg09
R_rear_hand03 Rope3_Seg09
Rope4_Seg01 null_rope04_connect
Rope4_Seg02 Rope4_Seg01
Rope4_Seg03 Rope4_Seg02
Rope4_Seg04 Rope4_Seg03
Rope4_Seg05 Rope4_Seg04
Rope4_Seg06 Rope4_Seg05
Rope4_Seg07 Rope4_Seg06
Rope4_Seg08 Rope4_Seg07
Rope4_Seg09 Rope4_Seg08
L_rear_hand01 Rope4_Seg09
L_rear_hand02 Rope4_Seg09
L_rear_hand03 Rope4_Seg09
[BasePosition]
#SegmentName Tx, Ty, Tz, Rx, Ry, Rz, BoneLength
MASTER 0.000000 0.000000 0.000000 -90.000000 0.000000 0.000000 10.000000 
root 0.000000 0.000000 0.000000 0.000000 0.000000 0.000000 10.000000 
chest 0.000000 0.000000 0.000000 0.000000 0.000000 0.000000 10.000000 
L_mid_tent01 0.000000 0.000000 0.000000 0.000000 0.000000 0.000000 10.000000 
R_mid_tent01 0.000000 0.000000 0.000000 0.000000 0.000000 0.000000 10.000000 
spine01 0.000000 0.000000 0.000000 0.000000 0.000000 0.000000 10.000000 
Bip01_Neck 0.000000 0.000000 0.000000 0.000000 0.000000 0.000000 10.000000 
L_humerus 0.000000 0.000000 0.000000 0.000000 0.000000 0.000000 10.000000 
R_humerus 0.000000 0.000000 0.000000 0.000000 0.000000 0.000000 10.000000 
weapon_bone 0.000000 0.000000 0.000000 0.000000 0.000000 0.000000 10.000000 
Bip01_Head 0.000000 0.000000 0.000000 0.000000 0.000000 0.000000 10.000000 
eye_left_bone 0.000000 0.000000 0.000000 0.000000 0.000000 0.000000 10.000000 
eye_right_bone 0.000000 0.000000 0.000000 0.000000 0.000000 0.000000 10.000000 
L_forearm 0.000000 0.000000 0.000000 0.000000 0.000000 0.000000 10.000000 
L_front_hand 0.000000 0.000000 0.000000 0.000000 0.000000 0.000000 10.000000 
L_weapon_bone 0.000000 0.000000 0.000000 0.000000 0.000000 0.000000 10.000000 
L_front_hand01_01 0.000000 0.000000 0.000000 0.000000 0.000000 0.000000 10.000000 
L_front_hand02_01 0.000000 0.000000 0.000000 0.000000 0.000000 0.000000 10.000000 
L_front_hand03_01 0.000000 0.000000 0.000000 0.000000 0.000000 0.000000 10.000000 
L_front_hand01_02 0.000000 0.000000 0.000000 0.000000 0.000000 0.000000 10.000000 
L_front_hand02_02 0.000000 0.000000 0.000000 0.000000 0.000000 0.000000 10.000000 
L_front_hand03_02 0.000000 0.000000 0.000000 0.000000 0.000000 0.000000 10.000000 
R_forearm 0.000000 0.000000 0.000000 0.000000 0.000000 0.000000 10.000000 
R_front_hand 0.000000 0.000000 0.000000 0.000000 0.000000 0.000000 10.000000 
R_weapon_bone 0.000000 0.000000 0.000000 0.000000 0.000000 0.000000 10.000000 
R_front_hand01_01 0.000000 0.000000 0.000000 0.000000 0.000000 0.000000 10.000000 
R_front_hand02_01 0.000000 0.000000 0.000000 0.000000 0.000000 0.000000 10.000000 
R_front_hand03_01 0.000000 0.000000 0.000000 0.000000 0.000000 0.000000 10.000000 
R_front_hand01_02 0.000000 0.000000 0.000000 0.000000 0.000000 0.000000 10.000000 
R_front_hand02_02 0.000000 0.000000 0.000000 0.000000 0.000000 0.000000 10.000000 
R_front_hand03_02 0.000000 0.000000 0.000000 0.000000 0.000000 0.000000 10.000000 
null_rope01_connect 0.000000 0.000000 0.000000 0.000000 0.000000 0.000000 10.000000 
Rope1_Seg01 0.000000 0.000000 0.000000 0.000000 0.000000 0.000000 10.000000 
Rope1_Seg02 0.000000 0.000000 0.000000 0.000000 0.000000 0.000000 10.000000 
Rope1_Seg03 0.000000 0.000000 0.000000 0.000000 0.000000 0.000000 10.000000 
Rope1_Seg04 0.000000 0.000000 0.000000 0.000000 0.000000 0.000000 10.000000 
Rope1_Seg05 0.000000 0.000000 0.000000 0.000000 0.000000 0.000000 10.000000 
Rope1_Seg06 0.000000 0.000000 0.000000 0.000000 0.000000 0.000000 10.000000 
Rope1_Seg07 0.000000 0.000000 0.000000 0.000000 0.000000 0.000000 10.000000 
Rope1_Seg09 0.000000 0.000000 0.000000 0.000000 0.000000 0.000000 10.000000 
L_mid_hand01 0.000000 0.000000 0.000000 0.000000 0.000000 0.000000 10.000000 
L_mid_hand02 0.000000 0.000000 0.000000 0.000000 0.000000 0.000000 10.000000 
L_mid_hand03 0.000000 0.000000 0.000000 0.000000 0.000000 0.000000 10.000000 
null_rope02_connect 0.000000 0.000000 0.000000 0.000000 0.000000 0.000000 10.000000 
Rope2_Seg01 0.000000 0.000000 0.000000 0.000000 0.000000 0.000000 10.000000 
Rope2_Seg02 0.000000 0.000000 0.000000 0.000000 0.000000 0.000000 10.000000 
Rope2_Seg03 0.000000 0.000000 0.000000 0.000000 0.000000 0.000000 10.000000 
Rope2_Seg04 0.000000 0.000000 0.000000 0.000000 0.000000 0.000000 10.000000 
Rope2_Seg05 0.000000 0.000000 0.000000 0.000000 0.000000 0.000000 10.000000 
Rope2_Seg06 0.000000 0.000000 0.000000 0.000000 0.000000 0.000000 10.000000 
Rope2_Seg07 0.000000 0.000000 0.000000 0.000000 0.000000 0.000000 10.000000 
Rope2_Seg09 0.000000 0.000000 0.000000 0.000000 0.000000 0.000000 10.000000 
R_mid_hand01 0.000000 0.000000 0.000000 0.000000 0.000000 0.000000 10.000000 
R_mid_hand02 0.000000 0.000000 0.000000 0.000000 0.000000 0.000000 10.000000 
R_mid_hand03 0.000000 0.000000 0.000000 0.000000 0.000000 0.000000 10.000000 
spine02 0.000000 0.000000 0.000000 0.000000 0.000000 0.000000 10.000000 
spine03 0.000000 0.000000 0.000000 0.000000 0.000000 0.000000 10.000000 
pelvis 0.000000 0.000000 0.000000 0.000000 0.000000 0.000000 10.000000 
null_rope03_connect 0.000000 0.000000 0.000000 0.000000 0.000000 0.000000 10.000000 
null_rope04_connect 0.000000 0.000000 0.000000 0.000000 0.000000 0.000000 10.000000 
Rope3_Seg01 0.000000 0.000000 0.000000 0.000000 0.000000 0.000000 10.000000 
Rope3_Seg02 0.000000 0.000000 0.000000 0.000000 0.000000 0.000000 10.000000 
Rope3_Seg03 0.000000 0.000000 0.000000 0.000000 0.000000 0.000000 10.000000 
Rope3_Seg04 0.000000 0.000000 0.000000 0.000000 0.000000 0.000000 10.000000 
Rope3_Seg05 0.000000 0.000000 0.000000 0.000000 0.000000 0.000000 10.000000 
Rope3_Seg06 0.000000 0.000000 0.000000 0.000000 0.000000 0.000000 10.000000 
Rope3_Seg07 0.000000 0.000000 0.000000 0.000000 0.000000 0.000000 10.000000 
Rope3_Seg08 0.000000 0.000000 0.000000 0.000000 0.000000 0.000000 10.000000 
Rope3_Seg09 0.000000 0.000000 0.000000 0.000000 0.000000 0.000000 10.000000 
R_rear_hand01 0.000000 0.000000 0.000000 0.000000 0.000000 0.000000 10.000000 
R_rear_hand02 0.000000 0.000000 0.000000 0.000000 0.000000 0.000000 10.000000 
R_rear_hand03 0.000000 0.000000 0.000000 0.000000 0.000000 0.000000 10.000000 
Rope4_Seg01 0.000000 0.000000 0.000000 0.000000 0.000000 0.000000 10.000000 
Rope4_Seg02 0.000000 0.000000 0.000000 0.000000 0.000000 0.000000 10.000000 
Rope4_Seg03 0.000000 0.000000 0.000000 0.000000 0.000000 0.000000 10.000000 
Rope4_Seg04 0.000000 0.000000 0.000000 0.000000 0.000000 0.000000 10.000000 
Rope4_Seg05 0.000000 0.000000 0.000000 0.000000 0.000000 0.000000 10.000000 
Rope4_Seg06 0.000000 0.000000 0.000000 0.000000 0.000000 0.000000 10.000000 
Rope4_Seg07 0.000000 0.000000 0.000000 0.000000 0.000000 0.000000 10.000000 
Rope4_Seg08 0.000000 0.000000 0.000000 0.000000 0.000000 0.000000 10.000000 
Rope4_Seg09 0.000000 0.000000 0.000000 0.000000 0.000000 0.000000 10.000000 
L_rear_hand01 0.000000 0.000000 0.000000 0.000000 0.000000 0.000000 10.000000 
L_rear_hand02 0.000000 0.000000 0.000000 0.000000 0.000000 0.000000 10.000000 
L_rear_hand03 0.000000 0.000000 0.000000 0.000000 0.000000 0.000000 10.000000 
#Beginning of Data. Separated by tabs
#Fr	Tx	Ty	Tz	Rx	Ry	Rz	SF
[MASTER]
3 -0.000050 349.585846 0.000000 0.001660 0.001660 0.001660 349.585846
4 -0.000076 524.378784 0.000000 0.001660 0.001660 0.001660 524.378784
[root]
3 -16.502293 -62.821960 1500.000000 -91.767509 -35.574497 -89.880173 1501.405640
4 -16.502291 -62.821960 1500.000000 -91.767502 -35.574497 -89.880173 1501.405640
[chest]
3 -84.512650 -34.090519 0.000000 -1.918836 0.877847 170.907166 91.129311
4 -84.512650 -34.090519 0.000000 -2.049901 0.789864 171.011810 91.129311
[L_mid_tent01]
3 27.299486 22.177513 -249.918274 -1.379272 36.511189 66.497528 252.381149
4 27.299479 22.177519 -249.918274 -1.379268 36.511192 66.497536 252.381149
[R_mid_tent01]
3 23.228794 24.509907 226.238495 173.895706 -30.891874 58.389244 228.744751
4 23.228794 24.509907 226.238495 173.895706 -30.891880 58.389252 228.744751
[spine01]
3 -0.361383 -0.195265 0.000000 0.001845 0.001451 13.654368 0.410763
4 -0.361383 -0.195265 0.000000 0.001845 0.001451 13.654368 0.410763
[Bip01_Neck]
3 165.484543 71.581718 0.000119 176.643677 -1.657967 43.431911 180.302734
4 165.484543 71.581718 0.000119 176.643677 -1.657967 43.431911 180.302734
[L_humerus]
3 -13.983130 -135.272980 -120.471481 161.635147 69.181282 -103.722130 181.680161
4 -13.983130 -135.272980 -120.471481 160.068542 69.411278 -106.268311 181.680161
[R_humerus]
3 -13.983309 -135.273102 125.287651 -175.163467 -65.059273 -86.433113 184.909012
4 -13.983309 -135.273102 125.287651 -174.312347 -65.691460 -88.403320 184.909012
[weapon_bone]
3 235.964890 -300.705902 0.000000 0.000000 -89.951546 -128.212341 382.234833
4 235.964890 -300.705902 0.000000 0.000000 -89.951546 -128.212341 382.234833
[Bip01_Head]
3 213.443436 185.717743 11.746563 4.962490 2.797846 -43.898750 283.173401
4 213.443008 185.718903 11.731373 4.962490 2.797846 -43.898743 283.173187
[eye_left_bone]
3 -24.626970 125.451866 -64.772606 0.000000 -90.000000 -99.840431 143.318359
4 -24.626970 125.451866 -64.772606 0.000000 -90.000000 -99.840431 143.318359
[eye_right_bone]
3 -24.626970 125.451866 64.327362 0.000000 -89.965736 80.156380 143.117676
4 -24.626970 125.451866 64.327362 0.000000 -89.972023 80.156380 143.117676
[L_forearm]
3 322.776093 0.000000 -0.000119 0.000185 -0.002340 -99.019806 322.776093
4 322.776093 0.000000 -0.000119 0.000163 -0.002342 -97.949028 322.776093
[L_front_hand]
3 241.149185 -0.042021 -3.300071 -178.575836 -1.768837 -30.242264 241.171753
4 241.149185 -0.042021 -3.300071 -178.608322 -1.790269 -29.300268 241.171753
[L_weapon_bone]
3 156.183838 0.000000 0.000000 0.000014 0.000007 0.000001 156.183838
4 156.183838 0.000000 0.000000 0.000014 0.000007 0.000001 156.183838
[L_front_hand01_01]
3 86.095154 20.947098 -0.655860 -0.366594 -0.477154 75.385574 88.609184
4 86.095154 20.947098 -0.655860 -0.366594 -0.477154 75.385574 88.609184
[L_front_hand02_01]
3 86.935165 -11.437475 24.513514 154.399796 -59.883835 -61.369587 91.046425
4 86.935165 -11.437475 24.513514 154.399796 -59.883835 -61.369587 91.046425
[L_front_hand03_01]
3 86.637497 -14.123976 -20.424902 -153.913849 58.118122 -62.702866 90.126129
4 86.637497 -14.123976 -20.424902 -153.913879 58.118130 -62.702892 90.126129
[L_front_hand01_02]
3 71.020905 -0.000179 0.000030 0.000323 -0.002325 -105.825325 71.020905
4 71.020905 -0.000179 0.000030 0.000322 -0.002325 -105.780128 71.020905
[L_front_hand02_02]
3 71.020927 -0.000119 0.000060 0.000323 -0.002325 -105.825325 71.020927
4 71.020927 -0.000119 0.000060 0.000322 -0.002325 -105.780128 71.020927
[L_front_hand03_02]
3 71.020905 -0.000060 0.000060 0.000323 -0.002325 -105.825325 71.020905
4 71.020905 -0.000060 0.000060 0.000322 -0.002325 -105.780128 71.020905
[R_forearm]
3 322.776428 -0.000060 0.000030 0.212381 0.021655 -97.271843 322.776428
4 322.776428 -0.000060 0.000030 0.212558 0.019840 -96.292885 322.776428
[R_front_hand]
3 238.847015 -0.006795 2.210259 -2.014478 -10.778469 -29.646654 238.857239
4 238.847015 -0.006795 2.210259 -2.221781 -10.738686 -28.534069 238.857239
[R_weapon_bone]
3 155.664093 0.002503 -0.000030 0.003487 0.001180 -90.988930 155.664078
4 155.664093 0.002503 -0.000030 0.003487 0.001180 -90.988930 155.664078
[R_front_hand01_01]
3 87.624611 14.231146 22.918642 -154.633499 -59.950619 61.746044 91.683487
4 87.624611 14.231146 22.918642 -154.633499 -59.950642 61.746071 91.683487
[R_front_hand02_01]
3 89.356956 14.367283 -19.491137 154.602661 58.302849 63.744389 92.579636
4 89.356956 14.367283 -19.491137 154.602661 58.302849 63.744381 92.579636
[R_front_hand03_01]
3 87.286232 -22.307278 -0.143439 0.162155 -0.423168 -75.767921 90.091743
4 87.286232 -22.307278 -0.143439 0.162155 -0.423168 -75.767921 90.091743
[R_front_hand01_02]
3 71.020905 0.000060 0.000119 0.002323 -0.000334 106.381714 71.020905
4 71.020905 0.000060 0.000119 0.002323 -0.000334 106.381714 71.020905
[R_front_hand02_02]
3 71.020844 -0.000030 -0.000119 0.002323 -0.000334 106.381714 71.020836
4 71.020844 -0.000030 -0.000119 0.002323 -0.000334 106.381714 71.020836
[R_front_hand03_02]
3 71.020905 0.000000 0.000030 0.002323 -0.000334 106.381714 71.020905
4 71.020905 0.000000 0.000030 0.002323 -0.000334 106.381714 71.020905
[null_rope01_connect]
3 328.732483 0.000000 -0.000238 -124.157524 -51.912285 -176.982559 328.732483
4 328.732483 0.000000 -0.000238 -124.157524 -51.912296 -176.982559 328.732483
[Rope1_Seg01]
3 0.000000 0.000000 0.000000 -168.216248 50.588146 -139.115723 0.000000
4 0.000000 0.000000 0.000000 -139.145523 54.965797 -124.210846 0.000000
[Rope1_Seg02]
3 139.999863 -0.000179 0.000000 3.860731 -25.225178 16.125755 139.999863
4 139.999863 -0.000179 0.000000 -4.587890 -16.694677 22.156771 139.999863
[Rope1_Seg03]
3 139.999924 0.000060 -0.000060 -3.173491 -27.500294 20.955828 139.999924
4 139.999924 0.000060 -0.000060 -4.596559 -19.869785 24.897800 139.999924
[Rope1_Seg04]
3 139.999924 -0.000060 -0.000119 -2.243567 -14.646627 13.962748 139.999924
4 139.999924 -0.000060 -0.000119 -1.543861 -12.347413 15.402140 139.999924
[Rope1_Seg05]
3 139.999832 0.000119 -0.000060 -0.155243 -12.386955 18.051641 139.999832
4 139.999832 0.000119 -0.000060 -0.463316 -11.900998 16.877728 139.999832
[Rope1_Seg06]
3 139.999954 0.000119 -0.000060 2.051391 -8.098845 12.208047 139.999954
4 139.999954 0.000119 -0.000060 1.360040 -8.297610 12.165280 139.999954
[Rope1_Seg07]
3 139.999985 0.000060 0.000000 2.220472 -4.079795 6.306095 139.999985
4 139.999985 0.000060 0.000000 1.895037 -4.244798 6.557893 139.999985
[Rope1_Seg09]
3 121.602913 0.000119 -0.000089 -89.793175 -1.359789 0.847147 121.602913
4 121.602913 0.000119 -0.000089 -89.793175 -1.359789 0.847147 121.602913
[L_mid_hand01]
3 103.859421 1.038730 8.195221 127.008408 -65.676300 -35.012211 104.187431
4 103.859421 1.038730 8.195221 128.844925 -66.712723 -37.020279 104.187431
[L_mid_hand02]
3 105.572853 -4.139662 -10.864139 -166.682281 42.892521 -70.228371 106.211075
4 105.572853 -4.139662 -10.864139 -167.882584 43.183556 -71.986374 106.211075
[L_mid_hand03]
3 104.641464 17.579376 -3.913581 -6.788666 17.538548 72.343208 106.179977
4 104.641464 17.579376 -3.913581 -6.373020 17.687300 73.717346 106.179977
[null_rope02_connect]
3 328.732849 0.000179 -0.000119 -98.934174 59.714317 12.539275 328.732849
4 328.732849 0.000179 -0.000119 -98.934196 59.714329 12.539274 328.732849
[Rope2_Seg01]
3 0.000075 0.000146 0.000007 -144.853729 37.534008 -38.841656 0.000164
4 0.000074 0.000142 0.000010 -154.660568 40.224117 -42.143803 0.000161
[Rope2_Seg02]
3 139.999741 -0.000060 -0.000119 1.566672 -16.623295 5.864000 139.999756
4 139.999741 -0.000060 -0.000119 4.733243 -16.640942 3.492058 139.999756
[Rope2_Seg03]
3 140.000107 0.000030 0.000000 -6.801644 -39.206238 20.276257 140.000107
4 140.000107 0.000030 0.000000 -1.786109 -36.127975 13.163606 140.000107
[Rope2_Seg04]
3 139.999802 0.000000 -0.000060 -4.753291 -32.699860 15.675561 139.999802
4 139.999802 0.000000 -0.000060 -4.129552 -32.900421 13.286873 139.999802
[Rope2_Seg05]
3 139.999985 -0.000060 0.000119 -4.451811 -18.255014 2.702454 139.999985
4 139.999985 -0.000060 0.000119 -2.700217 -17.409422 4.660107 139.999985
[Rope2_Seg06]
3 139.999893 -0.000030 -0.000119 -5.369749 -11.040504 0.341943 139.999893
4 139.999893 -0.000030 -0.000119 -2.373341 -9.550519 2.046631 139.999893
[Rope2_Seg07]
3 139.999893 0.000060 -0.000060 -3.627460 -5.673755 0.077436 139.999893
4 139.999893 0.000060 -0.000060 -1.638491 -5.149515 1.021037 139.999893
[Rope2_Seg09]
3 121.338966 0.000089 -0.000060 33.793236 -1.359788 -0.847141 121.338966
4 121.338966 0.000089 -0.000060 33.793236 -1.359788 -0.847141 121.338966
[R_mid_hand01]
3 104.680779 11.144459 -10.335981 -18.460539 44.531563 67.275063 105.778534
4 104.680779 11.144459 -10.335981 -17.254469 44.921875 68.987289 105.778534
[R_mid_hand02]
3 104.070427 2.443552 8.231699 52.565647 -65.920616 35.485355 104.424065
4 104.070427 2.443552 8.231699 50.757656 -66.920883 37.459167 104.424065
[R_mid_hand03]
3 106.028137 -11.221827 -5.996406 -176.446564 15.418314 -74.140053 106.788818
4 106.028137 -11.221827 -5.996406 -176.797501 15.492968 -75.452667 106.788818
[spine02]
3 129.756927 0.001550 0.000119 -1.022891 -4.075743 6.772593 129.756927
4 129.756927 0.001550 0.000119 -1.024431 -4.018645 6.772020 129.756927
[spine03]
3 78.613838 0.087419 -4.898872 1.041188 4.418744 4.220196 78.766380
4 78.613853 0.087413 -4.898872 1.037837 4.329718 4.219133 78.766396
[pelvis]
3 169.435242 0.051022 0.000000 0.019199 -0.080980 -10.721405 169.435257
4 169.435242 0.051022 0.000000 0.020665 -0.123064 -10.721420 169.435257
[null_rope03_connect]
3 -1.257226 -2.466202 137.391083 -141.557343 -87.909027 -106.698860 137.418976
4 -1.257226 -2.466202 137.391083 -143.741241 -87.937866 -104.510376 137.418976
[null_rope04_connect]
3 -1.259640 -2.480268 -137.844437 -141.557343 -87.909027 -106.698860 137.872513
4 -1.259640 -2.480268 -137.844437 -143.741241 -87.937866 -104.510376 137.872513
[Rope3_Seg01]
3 -0.000018 -0.000100 -0.000153 -143.042679 -35.754448 -60.541588 0.000183
4 -0.000018 -0.000112 -0.000153 -142.941544 -35.799240 -60.750305 0.000190
[Rope3_Seg02]
3 139.999924 -0.000119 0.000060 -26.914463 5.433996 -40.450760 139.999924
4 139.999924 -0.000119 0.000060 -25.798300 5.061642 -39.742676 139.999924
[Rope3_Seg03]
3 139.999924 -0.000119 0.000119 -33.663460 14.425184 -21.391279 139.999924
4 139.999924 -0.000119 0.000119 -27.384439 11.838439 -17.863201 139.999924
[Rope3_Seg04]
3 139.999924 0.000119 0.000000 -61.817490 45.996990 -38.906017 139.999924
4 139.999924 0.000119 0.000000 -62.714401 39.079960 -38.762306 139.999924
[Rope3_Seg05]
3 139.999924 -0.000238 0.000060 -2.662687 26.534220 6.677336 139.999924
4 139.999924 -0.000238 0.000060 -5.597058 32.504944 6.699919 139.999924
[Rope3_Seg06]
3 139.999893 -0.000119 -0.000060 0.486064 6.164413 2.004140 139.999893
4 139.999893 -0.000119 -0.000060 0.308083 7.093464 2.384555 139.999893
[Rope3_Seg07]
3 139.999771 0.000060 -0.000119 0.665913 3.339455 1.060137 139.999771
4 139.999771 0.000060 -0.000119 0.605982 3.730062 1.233771 139.999771
[Rope3_Seg08]
3 139.999985 -0.000060 0.000000 0.658695 1.848250 0.561337 139.999985
4 139.999985 -0.000060 0.000000 0.631523 2.030920 0.650961 139.999985
[Rope3_Seg09]
3 90.185997 -0.000179 -0.000060 89.793228 -1.359877 -0.847183 90.185997
4 90.185997 -0.000179 -0.000060 89.793228 -1.359877 -0.847183 90.185997
[R_rear_hand01]
3 103.366196 -6.073594 -10.757982 -176.562469 24.436451 -71.142044 104.101845
4 103.366196 -6.073594 -10.757982 -177.180405 24.516863 -72.637703 104.101845
[R_rear_hand02]
3 100.509819 12.039542 -7.992327 -14.693279 36.267807 69.111252 101.543350
4 100.509819 12.039542 -7.992327 -13.721433 36.601822 70.754135 101.543350
[R_rear_hand03]
3 101.539970 5.215704 5.435467 73.641991 -69.405350 19.228550 101.819031
4 101.539970 5.215704 5.435467 72.550484 -70.706764 20.388565 101.819031
[Rope4_Seg01]
3 -0.000075 -0.000182 0.000000 58.475689 -47.754860 -109.760101 0.000197
4 -0.000074 -0.000178 0.000000 56.568905 -46.291134 -107.503952 0.000193
[Rope4_Seg02]
3 139.999985 0.000060 0.000119 13.722292 -37.383335 15.008489 139.999985
4 139.999985 0.000060 0.000119 11.302989 -34.981621 13.286774 139.999985
[Rope4_Seg03]
3 139.999924 0.000000 -0.000238 30.760550 -28.199661 22.472616 139.999924
4 139.999924 0.000000 -0.000238 28.551025 -28.981050 19.427988 139.999924
[Rope4_Seg04]
3 139.999985 0.000000 0.000119 28.222094 -7.625342 56.494724 139.999985
4 139.999985 0.000000 0.000119 31.108479 -14.507241 54.988659 139.999985
[Rope4_Seg05]
3 139.999802 -0.000060 -0.000119 3.139635 8.737352 20.346207 139.999802
4 139.999802 -0.000060 -0.000119 5.629535 10.188526 26.390131 139.999802
[Rope4_Seg06]
3 139.999924 0.000000 0.000060 -0.092658 2.377525 5.235228 139.999924
4 139.999924 0.000000 0.000060 -0.015470 2.607397 5.771909 139.999924
[Rope4_Seg07]
3 139.999802 0.000000 0.000000 -0.128141 1.315976 2.913704 139.999802
4 139.999802 0.000000 0.000000 -0.108753 1.399848 3.111785 139.999802
[Rope4_Seg08]
3 139.999924 0.000000 0.000119 -1.642371 0.739911 1.635754 139.999924
4 139.999924 0.000000 0.000119 -1.638968 0.768240 1.716995 139.999924
[Rope4_Seg09]
3 90.185791 0.000060 0.000060 -135.617828 2.228885 0.850567 90.185791
4 90.185791 0.000060 0.000060 -135.617828 2.228885 0.850567 90.185791
[L_rear_hand01]
3 101.696655 -8.392275 -7.654577 -14.718358 -36.257187 110.935326 102.329041
4 101.696655 -8.392275 -7.654577 -13.731910 -36.595154 109.269127 102.329041
[L_rear_hand02]
3 102.726799 -1.568258 5.773216 73.658264 69.371582 160.791580 102.900848
4 102.726799 -1.568258 5.773216 72.566826 70.694969 159.630798 102.900848
[L_rear_hand03]
3 104.552910 9.721220 -10.420293 -176.542313 -24.437103 -108.899315 105.519653
4 104.552910 9.721220 -10.420293 -177.172852 -24.512310 -107.383331 105.519653
